<svg width="74" height="70" viewBox="0 0 74 70" fill="none" xmlns="http://www.w3.org/2000/svg">
<path d="M53.3515 19.53L29.2537 42.595L16.1261 30.065L10.9701 35L29.2537 52.5L58.5075 24.5L53.3515 19.53ZM36.5672 0C16.3821 0 0 15.68 0 35C0 54.32 16.3821 70 36.5672 70C56.7522 70 73.1343 54.32 73.1343 35C73.1343 15.68 56.7522 0 36.5672 0ZM36.5672 63C20.4045 63 7.31343 50.47 7.31343 35C7.31343 19.53 20.4045 7 36.5672 7C52.7299 7 65.8209 19.53 65.8209 35C65.8209 50.47 52.7299 63 36.5672 63Z" fill="#00BF86"/>
</svg>
