<svg width="18" height="18" viewBox="0 0 18 18" fill="none" xmlns="http://www.w3.org/2000/svg">
<path d="M9 0C4.0401 0 0 4.0401 0 9C0 13.9599 4.0401 18 9 18C13.9599 18 18 13.9599 18 9C18 4.0401 13.9599 0 9 0ZM9 1.8C12.9871 1.8 16.2 5.01289 16.2 9C16.2 12.9871 12.9871 16.2 9 16.2C5.01289 16.2 1.8 12.9871 1.8 9C1.8 5.01289 5.01289 1.8 9 1.8ZM6.03633 4.76367L4.76367 6.03633L7.72734 9L4.76367 11.9637L6.03633 13.2363L9 10.2727L11.9637 13.2363L13.2363 11.9637L10.2727 9L13.2363 6.03633L11.9637 4.76367L9 7.72734L6.03633 4.76367Z" fill="#111111"/>
</svg>
