<svg width="17" height="18" viewBox="0 0 17 18" fill="none" xmlns="http://www.w3.org/2000/svg">
<path d="M10.1563 13.096C10.1563 12.3871 10.7309 11.8125 11.4397 11.8125V11.8125C12.1486 11.8125 12.7232 12.3871 12.7232 13.096V13.229C12.7232 13.9379 12.1486 14.5125 11.4397 14.5125V14.5125C10.7309 14.5125 10.1563 13.9379 10.1563 13.229V13.096ZM16.0714 3.6V16.2C16.0714 17.19 15.2679 18 14.2857 18H1.78571C0.794643 18 0 17.19 0 16.2L0.00892856 3.6C0.00892856 2.61 0.794643 1.8 1.78571 1.8H2.67857V0H4.46429V1.8H11.6071V0H13.3929V1.8H14.2857C15.2679 1.8 16.0714 2.61 16.0714 3.6ZM1.78571 5.4H14.2857V3.6H1.78571V5.4ZM14.2857 16.2V7.2H1.78571V16.2H14.2857Z" fill="#111111"/>
</svg>
