<svg width="47" height="47" viewBox="0 0 47 47" fill="none" xmlns="http://www.w3.org/2000/svg">
<path d="M38.7363 34.2904C33.8992 34.2904 25.87 31.6859 21.7379 23.6567C17.175 14.8246 20.7588 7.05003 22.7758 3.93628C12.2792 4.30836 3.87793 12.9054 3.87793 23.5C3.87793 23.7742 3.9171 24.0484 3.9171 24.3225C5.11168 23.8134 6.42376 23.5 7.7946 23.5C7.7946 17.4488 11.1825 12.2004 16.2154 9.59586C15.2363 13.8846 15.1579 19.4659 18.2521 25.4584C21.3267 31.4117 26.4379 35.1521 31.5688 36.9342C29.16 38.3834 26.3792 39.1863 23.4808 39.1863C22.5017 39.1863 21.5225 39.0884 20.5825 38.9121C19.8579 40.2829 18.7417 41.3992 17.3708 42.1238C19.29 42.7504 21.3463 43.1029 23.4613 43.1029C30.3154 43.1029 36.3471 39.5779 39.8525 34.2513C39.5196 34.2709 39.1279 34.2904 38.7363 34.2904Z" fill="#7B61FF"/>
<path d="M20.5628 39.1665C16.8909 38.4322 7.58877 33.7811 7.58877 23.4999C7.58877 13.2186 5.63044 22.7655 5.63044 22.7655C5.63044 22.7655 4.16172 15.1769 3.9169 24.2342C3.67208 33.2915 11.2605 40.8801 19.0939 42.3488C21.5739 42.8138 23.2555 43.5728 22.7659 41.3697C22.2763 39.1665 22.0316 39.9009 20.5628 39.1665Z" fill="#7B61FF" stroke="#7B61FF"/>
</svg>
