<svg width="28" height="28" viewBox="0 0 28 28" fill="none" xmlns="http://www.w3.org/2000/svg">
<g clip-path="url(#clip0_1401_2649)">
<path d="M15.1663 8.16671H12.833V12.8334H8.16634V15.1667H12.833V19.8334H15.1663V15.1667H19.833V12.8334H15.1663V8.16671ZM13.9997 2.33337C7.55967 2.33337 2.33301 7.56004 2.33301 14C2.33301 20.44 7.55967 25.6667 13.9997 25.6667C20.4397 25.6667 25.6663 20.44 25.6663 14C25.6663 7.56004 20.4397 2.33337 13.9997 2.33337ZM13.9997 23.3334C8.85468 23.3334 4.66634 19.145 4.66634 14C4.66634 8.85504 8.85468 4.66671 13.9997 4.66671C19.1447 4.66671 23.333 8.85504 23.333 14C23.333 19.145 19.1447 23.3334 13.9997 23.3334Z" fill="black"/>
</g>
<defs>
<clipPath id="clip0_1401_2649">
<rect width="28" height="28" fill="white"/>
</clipPath>
</defs>
</svg>
